HIERARCHY
ROOT Hips
{
	OFFSET 0.000000 0.000000 0.000000
	CHANNELS 6 Xposition Yposition Zposition Zrotation Yrotation Xrotation 
	JOINT LeftUpLeg_virtual
	{
		OFFSET 0.000000 0.000000 0.000000
		CHANNELS 3 Zrotation Yrotation Xrotation
		JOINT LeftUpLeg
		{
			OFFSET 10.205400 -3.823500 0.155100
			CHANNELS 3 Zrotation Yrotation Xrotation
			JOINT LeftLeg
			{
				OFFSET 0.708757 -12.982077 0.567790
				CHANNELS 3 Zrotation Yrotation Xrotation
				JOINT LeftFoot
				{
					OFFSET -0.708756 -10.717838 -2.184338
					CHANNELS 3 Zrotation Yrotation Xrotation
					JOINT LeftToeBase
					{
						OFFSET 0.108149 -7.191104 7.560241
						CHANNELS 3 Zrotation Yrotation Xrotation
						End Site
						{
							OFFSET 0.000000 0.000000 0.000000
						}
					}
				}
			}
		}
	}
	JOINT RightUpLeg_virtual
	{
		OFFSET 0.000000 0.000000 0.000000
		CHANNELS 3 Zrotation Yrotation Xrotation
		JOINT RightUpLeg
		{
			OFFSET -10.205400 -3.823500 0.005500
			CHANNELS 3 Zrotation Yrotation Xrotation
			JOINT RightLeg
			{
				OFFSET -0.708756 -12.982134 0.610632
				CHANNELS 3 Zrotation Yrotation Xrotation
				JOINT RightFoot
				{
					OFFSET 0.708754 -10.717769 -1.945823
					CHANNELS 3 Zrotation Yrotation Xrotation
					JOINT RightToeBase
					{
						OFFSET -0.108140 -7.191069 7.372968
						CHANNELS 3 Zrotation Yrotation Xrotation
						End Site
						{
							OFFSET 0.000000 0.000000 0.000000
						}
					}
				}
			}
		}
	}
	JOINT Spine_virtual
	{
		OFFSET 0.000000 0.000000 0.000000
		CHANNELS 3 Zrotation Yrotation Xrotation
		JOINT Spine
		{
			OFFSET 0.000000 6.876099 0.125700
			CHANNELS 3 Zrotation Yrotation Xrotation
			JOINT Spine1
			{
				OFFSET 0.000000 8.022060 0.146608
				CHANNELS 3 Zrotation Yrotation Xrotation
				JOINT Spine2
				{
					OFFSET 0.000000 9.168068 0.167552
					CHANNELS 3 Zrotation Yrotation Xrotation
					JOINT Neck_virtual
					{
						OFFSET 0.000000 0.000000 0.000000
						CHANNELS 3 Zrotation Yrotation Xrotation
						JOINT Neck
						{
							OFFSET 0.000000 10.314075 0.188496
							CHANNELS 3 Zrotation Yrotation Xrotation
							JOINT Head
							{
								OFFSET 0.000000 7.643700 -2.377400
								CHANNELS 3 Zrotation Yrotation Xrotation
								End Site
								{
									OFFSET 0.000000 0.000000 0.000000
								}
							}
						}
					}
					JOINT LeftShoulder_virtual
					{
						OFFSET 0.000000 0.000000 0.000000
						CHANNELS 3 Zrotation Yrotation Xrotation
						JOINT LeftShoulder
						{
							OFFSET 4.392200 8.824978 0.174984
							CHANNELS 3 Zrotation Yrotation Xrotation
							JOINT LeftArm
							{
								OFFSET 8.771219 -2.981674 -0.026999
								CHANNELS 3 Zrotation Yrotation Xrotation
								JOINT LeftForeArm
								{
									OFFSET 8.512804 0.000000 -0.000000
									CHANNELS 3 Zrotation Yrotation Xrotation
									JOINT LeftHand
									{
										OFFSET 18.484802 0.000000 -0.000000
										CHANNELS 3 Zrotation Yrotation Xrotation
										End Site
										{
											OFFSET 0.000000 0.000000 0.000000
										}
									}
								}
							}
						}
					}
					JOINT RightShoulder_virtual
					{
						OFFSET 0.000000 0.000000 0.000000
						CHANNELS 3 Zrotation Yrotation Xrotation
						JOINT RightShoulder
						{
							OFFSET -4.392200 8.824993 0.141379
							CHANNELS 3 Zrotation Yrotation Xrotation
							JOINT RightArm
							{
								OFFSET -8.771282 -2.981682 -0.094208
								CHANNELS 3 Zrotation Yrotation Xrotation
								JOINT RightForeArm
								{
									OFFSET -8.494598 0.000000 0.000000
									CHANNELS 3 Zrotation Yrotation Xrotation
									JOINT RightHand
									{
										OFFSET -18.483803 0.000000 0.000001
										CHANNELS 3 Zrotation Yrotation Xrotation
										End Site
										{
											OFFSET 0.000000 0.000000 0.000000
										}
									}
								}
							}
						}
					}
				}
			}
		}
	}
}
MOTION
Frames: 7
Frame Time: 0.033333
-42.894981 36.971432 -18.088381 -0.254989 8.937895 -0.085347 -1.262950 -6.137175 15.019873 -3.671386 7.606695 -29.896223 9.679587 -10.850199 51.453693 -12.460586 -2.680474 16.256106 0.000000 0.000000 0.000000 2.952971 -4.595464 13.426815 -7.902922 5.766815 -23.727958 -1.863428 6.753183 24.990332 5.001974 4.123982 14.981334 0.000000 0.000000 0.000000 0.798000 -0.081909 1.303029 3.402403 4.965181 -12.164149 -1.867752 -1.430524 11.368435 -0.034763 -0.024621 0.009663 -2.349115 1.225357 15.187496 8.226564 -11.613167 23.404755 0.000000 0.000000 0.000000 -0.402379 1.448711 12.297901 -2.813781 -4.982334 -2.689569 -79.804620 21.106758 11.075513 7.042073 -32.666739 13.720829 0.000000 0.000000 0.000000 -5.256126 3.379822 10.385387 7.291562 3.672619 -3.328903 67.929633 -11.557161 17.705621 -163.629189 60.673247 -162.370412 0.000000 0.000000 0.000000 
-43.051598 37.048672 -17.585438 -0.270524 9.777118 -0.010973 -1.261671 -6.097641 15.281206 -2.798413 8.982321 -31.863864 9.975541 -10.014142 47.110390 -11.716672 -2.593206 16.436715 0.000000 0.000000 0.000000 3.036164 -4.607702 13.437398 -7.402714 4.914359 -21.582298 -1.879587 5.621855 23.578914 4.860279 3.204343 14.446337 0.000000 0.000000 0.000000 0.781540 -0.002553 1.609321 3.657059 4.932015 -12.281303 -1.856003 -1.547754 11.111324 -0.035447 -0.045559 0.043760 -2.354577 1.194464 14.674701 6.727162 -10.447417 24.282190 0.000000 0.000000 0.000000 -0.309728 1.494602 11.807477 -3.158203 -4.558542 -2.825192 -79.870333 21.519623 11.361180 7.271121 -32.325421 13.511131 0.000000 0.000000 0.000000 -5.154066 3.372880 9.983763 7.262718 3.538225 -3.911482 67.173387 -9.629540 18.500337 -163.806624 61.363287 -162.258643 0.000000 0.000000 0.000000 
-43.182610 37.119183 -17.125643 -0.221141 10.601493 0.052583 -1.424960 -5.857789 15.731230 -2.719775 10.433268 -32.990336 10.468389 -8.759408 39.966029 -11.110347 -2.643992 16.478441 0.000000 0.000000 0.000000 3.048150 -4.305489 13.864254 -6.834239 3.316214 -19.767821 -1.867883 4.547659 21.912384 5.046359 2.372345 14.207846 0.000000 0.000000 0.000000 0.733108 0.233935 2.028754 3.923595 4.942039 -12.533107 -1.760870 -1.563044 10.911325 -0.022112 0.003775 0.011630 -2.230696 0.971433 14.336002 5.416803 -9.240995 25.056879 0.000000 0.000000 0.000000 -0.156005 1.296206 11.556781 -3.430255 -4.404263 -2.823384 -80.059413 21.733134 11.568805 7.590014 -31.901478 13.145863 0.000000 0.000000 0.000000 -5.015639 3.111364 9.666804 7.401796 3.219097 -4.093994 66.269357 -7.982192 18.597852 -164.374964 61.788295 -162.464765 0.000000 0.000000 0.000000 
-43.263779 37.161404 -16.684742 -0.176925 11.566394 -0.015433 -1.600505 -5.627290 16.282732 -3.507730 11.882576 -33.702575 10.973870 -7.232408 31.567044 -10.657294 -2.854653 16.363265 0.000000 0.000000 0.000000 3.108004 -4.253090 14.500878 -6.266115 0.959612 -18.462666 -1.698014 4.263152 20.816463 5.442798 1.643029 13.722262 0.000000 0.000000 0.000000 0.701583 0.420387 2.600239 4.239884 4.866778 -12.867661 -1.745705 -1.782764 10.782338 -0.055735 0.087503 0.035773 -2.152765 0.781030 13.976313 4.345788 -7.957721 25.831745 0.000000 0.000000 0.000000 -0.035520 1.094334 11.155990 -3.630736 -3.951113 -2.853330 -80.289092 21.890321 11.685470 7.715220 -31.425301 12.825394 0.000000 0.000000 0.000000 -4.886518 2.951972 9.352895 7.706189 2.954921 -4.012781 65.605039 -6.532314 18.103345 -165.112938 62.097225 -162.859481 0.000000 0.000000 0.000000 
-43.278946 37.178730 -16.250996 -0.195207 12.046465 -0.102201 -1.659440 -5.032940 16.934199 -5.095781 13.198716 -34.477234 11.299669 -5.454758 23.590299 -10.299541 -3.219592 16.187140 0.000000 0.000000 0.000000 3.163970 -3.681397 15.352710 -5.780036 -1.830269 -17.217990 -1.311813 4.451170 19.281981 5.991866 1.186547 13.578613 0.000000 0.000000 0.000000 0.744495 0.887815 3.194391 4.559094 5.091606 -13.218363 -1.690185 -1.960438 10.722098 -0.022076 -0.099633 -0.013997 -2.138253 0.652113 13.815926 3.376018 -6.993884 26.666153 0.000000 0.000000 0.000000 0.014563 0.957842 10.963039 -3.739770 -3.632672 -2.815774 -80.567067 21.851322 11.672322 7.781112 -30.859826 12.400716 0.000000 0.000000 0.000000 -4.871483 2.735638 9.197515 7.998870 2.624192 -3.789031 65.347541 -5.365837 17.182393 -165.580765 62.371846 -163.044579 0.000000 0.000000 0.000000 
-43.220200 37.185429 -15.824063 0.030622 12.844789 -0.089066 -1.962232 -4.706603 17.515125 -7.481298 14.751421 -35.593390 11.563633 -3.996345 17.159515 -10.043567 -3.761955 15.933916 0.000000 0.000000 0.000000 3.131214 -3.498573 16.179070 -5.863422 -4.366507 -16.316087 -0.847321 3.345524 18.590226 6.678684 0.765907 13.178865 0.000000 0.000000 0.000000 0.652356 0.983004 3.727684 4.815720 5.120697 -13.609543 -1.707393 -1.984951 10.686687 -0.011526 -0.030833 0.018550 -2.098351 0.451848 13.674548 2.585240 -6.079247 27.555847 0.000000 0.000000 0.000000 0.053293 0.826315 10.754058 -3.859948 -3.344662 -2.829189 -80.813118 21.611294 11.725925 7.787166 -30.307380 12.001138 0.000000 0.000000 0.000000 -4.800665 2.547830 9.031259 8.251433 2.258621 -3.475020 65.474070 -4.173151 16.098209 -165.803170 62.816376 -163.066983 0.000000 0.000000 0.000000 
-43.083305 37.177589 -15.360646 -0.063533 13.439019 -0.139752 -1.948882 -4.286284 18.094213 -10.325905 16.271911 -36.984228 11.919219 -2.827368 12.870186 -9.777695 -4.442887 15.598211 0.000000 0.000000 0.000000 3.415518 -3.243774 17.049542 -6.207073 -6.399244 -15.405440 -0.863357 2.506011 17.823391 7.960364 1.242728 12.801531 0.000000 0.000000 0.000000 0.816430 1.318283 4.204708 5.128353 5.287370 -13.991820 -1.728213 -2.101636 10.678164 -0.041434 -0.049635 0.006349 -2.104977 0.339142 13.638281 1.960868 -5.301941 28.472963 0.000000 0.000000 0.000000 0.025493 0.706904 10.611624 -3.948484 -3.195437 -2.796572 -80.862186 21.325247 12.141553 7.798420 -29.830868 11.545091 0.000000 0.000000 0.000000 -4.766103 2.452935 8.910566 8.330176 1.956659 -2.797081 65.977421 -2.946860 15.005015 -165.402060 63.358406 -162.724817 0.000000 0.000000 0.000000 
